<svg width="189" height="28" viewBox="0 0 189 28" fill="none" xmlns="http://www.w3.org/2000/svg">
<path d="M4.6571 27.7695H0V20.3877C0 17.8569 2.08506 15.8052 4.6571 15.8052V11.8107C2.08506 11.8107 0 9.75903 0 7.22817V0.230453H4.6571V11.8107H17.7799V0.230453H22.437V27.7695H17.7799V15.8052H4.6571V27.7695Z" fill="white"/>
<path d="M31.9493 20.9712L29.3247 27.7695H24.5098L35.1066 0.230453H40.6517L51.1894 27.7695H46.2166L43.5526 20.9712H31.9493ZM42.2502 17.1111L37.7312 5.10837L33.2517 17.1111H42.2502Z" fill="white"/>
<path d="M51.5454 15.9781V0.230453H56.1828V16.2085C56.1828 21.3937 58.3337 23.9863 62.6554 23.9863C67.1349 23.9863 69.2069 21.3745 69.2069 16.2085V0.230453H73.8442V15.9781C73.8442 23.8326 69.9962 28 62.6554 28C55.3737 28 51.5454 23.8326 51.5454 15.9781Z" fill="white"/>
<path d="M76.9235 18.7243L81.6003 18.8011C81.7187 20.4335 82.3896 21.7394 83.6131 22.7188C84.8366 23.6982 86.435 24.1975 88.3886 24.1975C90.1054 24.1975 91.5065 23.8326 92.5721 23.1029C93.6377 22.3923 94.1705 21.3937 94.1705 20.107C94.1705 19.2812 93.8942 18.5899 93.4996 18.1097C93.1049 17.6296 92.2564 17.1687 91.5657 16.8807C91.2105 16.7462 90.7369 16.5926 90.1449 16.4582C89.5529 16.3237 89.0201 16.1893 88.5662 16.0933C88.1123 15.9973 87.5006 15.9012 86.731 15.7668C84.6195 15.4019 83.1987 15.0754 81.5214 14.2881C80.6728 13.8848 79.9821 13.4239 79.4493 12.9054C78.364 11.8683 77.6141 10.1975 77.6141 8.06584C77.6141 5.6653 78.5416 3.70645 80.3965 2.22771C82.2318 0.748971 84.659 0 87.6585 0C90.875 0 93.4404 0.768175 95.3545 2.32373C97.2687 3.87929 98.2751 5.93416 98.3737 8.48834H93.7364C93.5588 7.08642 92.9273 5.95336 91.842 5.08916C90.7566 4.24417 89.3555 3.82167 87.6585 3.82167C84.363 3.82167 82.2515 5.22359 82.2515 7.75857C82.2515 8.44993 82.3896 9.02606 82.7843 9.48697C83.179 9.96708 83.5342 10.3128 84.284 10.62C85.0339 10.9273 85.547 11.1193 86.6126 11.3498C87.1454 11.465 87.5993 11.561 88.0137 11.6379C88.4281 11.7147 88.9609 11.8107 89.6121 11.9259C90.6777 12.118 91.6052 12.31 92.3945 12.5213C93.1838 12.7325 94.0126 13.0206 94.8809 13.4239C95.7295 13.8272 96.4399 14.2881 96.9727 14.8066C98.058 15.8628 98.8473 17.5336 98.8276 19.6269C98.8276 22.1043 97.8607 24.1207 95.9268 25.6763C93.9732 27.2318 91.4473 28 88.3491 28C84.8958 28 82.1331 27.155 80.1005 25.4458C78.068 23.7558 77.0024 21.5089 76.9235 18.7243Z" fill="white"/>
<path d="M108.031 4.24417H99.3091V0.230453H121.411V4.24417H112.688V27.7695H108.031V4.24417Z" fill="white"/>
<path fill-rule="evenodd" clip-rule="evenodd" d="M175.93 12.7179C174.039 12.3489 172.336 12.0163 172.336 10.3869C172.336 9.28277 173.275 8.56714 174.902 8.56714C176.571 8.56714 177.676 9.32366 178.073 11.0412H180.555C180.055 7.99463 177.76 6.68604 174.964 6.68604C171.731 6.68604 169.937 8.48535 169.937 10.5709C169.937 13.6069 172.479 14.1267 174.799 14.6009C176.744 14.9986 178.532 15.3642 178.532 17.1548C178.532 18.402 177.509 19.2403 175.569 19.2403C173.671 19.2403 172.482 18.3816 172.086 16.8072H169.645C170.229 19.7106 172.399 21.1214 175.549 21.1214C178.657 21.1214 180.931 19.5879 180.931 16.8481C180.931 13.6944 178.285 13.1779 175.93 12.7179ZM158.239 6.95185V20.8556H164.163C167.293 20.8556 169.149 19.4039 169.149 16.889C169.149 15.2532 168.21 14.0469 166.458 13.5357C167.689 13.0245 168.356 12.0226 168.356 10.7345C168.356 8.40357 166.458 6.95185 163.454 6.95185H158.239ZM160.575 8.77161H163.392C164.998 8.77161 165.957 9.56903 165.957 10.8572C165.957 12.0431 165.019 12.861 163.35 12.861H160.575V8.77161ZM160.575 14.6398H163.871C165.686 14.6398 166.75 15.4986 166.75 16.8276C166.75 18.1567 165.749 19.0359 164.101 19.0359H160.575V14.6398ZM154.954 20.8556L153.744 17.7273H147.277L146.067 20.8556H144.65H143.731H135.45V6.95185H137.786V18.995H144.462L149.196 6.95185H151.929L157.395 20.8556H154.954ZM150.093 10.5096L147.986 15.928H153.035L150.928 10.5096L150.51 9.1601L150.093 10.5096Z" fill="white"/>
<path fill-rule="evenodd" clip-rule="evenodd" d="M180.656 0.817869H134.97C130.822 0.817869 127.46 4.11342 127.46 8.17869V19.4244C127.46 23.4897 130.822 26.7852 134.97 26.7852H180.656C184.803 26.7852 188.165 23.4897 188.165 19.4244V8.17869C188.165 4.11342 184.803 0.817869 180.656 0.817869ZM134.97 0C130.362 0 126.626 3.66173 126.626 8.17869V19.4244C126.626 23.9414 130.362 27.6031 134.97 27.6031H180.656C185.264 27.6031 189 23.9414 189 19.4244V8.17869C189 3.66173 185.264 0 180.656 0H134.97Z" fill="white"/>
</svg>
